<svg id="图层_1" xmlns="http://www.w3.org/2000/svg" viewBox="0 0 558 172"><style>.st1{fill:#c8c8c8}.st3{fill:#8abe25}.st5,.st6{fill:none;stroke:#c8c8c8;stroke-width:2;stroke-linecap:round;stroke-linejoin:round;stroke-miterlimit:10}.st6{stroke:#fff}</style><path class="st1" d="M1 171.5c-.1 0-.2 0-.4-.1-.5-.2-.8-.8-.6-1.3.1-.2 8.9-22.6 10.3-27.5.7-2.6 1-9.5 1.2-15.6.2-5.3.3-10.3.8-12.5 1-4.5 17.3-19.5 20.5-22.4V7.2c0-4.3 3.5-7.7 7.7-7.7H136c4.3 0 7.7 3.5 7.7 7.7v84.9c2.9 2.8 18.3 17.8 19.9 22.3.9 2.7 1 10.1 1.1 17.2.1 4.9.1 10 .5 11.5 1 3.5 10.4 26.2 10.5 26.5.2.5 0 1.1-.5 1.3-.5.2-1.1 0-1.3-.5-.4-.9-9.6-23.1-10.6-26.7-.5-1.7-.5-6.5-.6-12-.1-6.3-.2-14.1-1-16.5-1.2-3.6-14.6-16.9-19.7-21.8-.2-.2-.3-.4-.3-.7V7.2c0-3.2-2.6-5.7-5.7-5.7H40.5c-3.2 0-5.7 2.6-5.7 5.7v85.3c0 .3-.1.6-.3.7-7.5 6.7-19.5 18.5-20.2 21.6-.4 2-.6 6.9-.8 12.1-.2 6.5-.4 13.3-1.2 16.1-1.4 5-10 26.8-10.4 27.7-.2.6-.5.8-.9.8z"/><path class="st1" d="M29.7 170.5c-.5 0-.9-.3-1-.8-.6-2.5-.9-13.8 4.3-18.8 3.7-3.5 9.3-9.1 9.3-9.1.4-.4 1-.4 1.4 0 .4.4.4 1 0 1.4-.1.1-5.6 5.6-9.3 9.1-4.3 4.2-4.3 14.3-3.7 16.9.1.5-.2 1.1-.8 1.2 0 .1-.1.1-.2.1zM146.3 170.5h-.2c-.5-.1-.9-.7-.8-1.2.6-2.6.7-12.7-3.7-16.9-3.7-3.5-9.3-9.1-9.3-9.1-.4-.4-.4-1 0-1.4.4-.4 1-.4 1.4 0 .1.1 5.6 5.6 9.3 9.1 5.2 5 4.8 16.4 4.3 18.8-.1.4-.5.7-1 .7zM29.3 141.1c-.4 0-.8-.3-1-.7-.2-.5.1-1.1.7-1.3 7.7-2.4 7.7-11.3 7-16.4-.1-.5-.2-1-.2-1.5-.6-3.6-.7-5.4 3.6-11.5 4.9-7.1 5.2-13 3.6-14.3-.3-.3-.7-.4-1.2-.3-2.1.3-5.6 3.4-9.4 8.7-1.9 2.5-3.4 4.7-4.8 6.6-2.8 3.9-4.1 5.7-4.7 6.2-.4.4-1 .4-1.4 0-.4-.4-.4-1 0-1.4.5-.5 2.1-2.8 4.5-6 1.3-1.8 2.9-4 4.8-6.6 4.3-6 8-9.1 10.8-9.5 1.1-.1 2 .1 2.8.8 3 2.5 1.6 10-3.2 17-3.9 5.8-3.7 7-3.2 10.1.1.5.2 1 .2 1.5 1.3 9.9-1.7 16.4-8.4 18.6h-.5z"/><path class="st1" d="M137.1 142.9H39.3c-3.2 0-5.8-2.6-5.8-5.8 0-.6.4-1 1-1s1 .4 1 1c0 2.1 1.7 3.8 3.8 3.8h97.8c2.1 0 3.8-1.7 3.8-3.8v-.6c0-.6.4-1 1-1s1 .4 1 1v.6c0 3.2-2.6 5.8-5.8 5.8z"/><path class="st1" d="M147.6 140.3c-.1 0-.2 0-.3-.1-13.5-4.4-9.8-20.9-9.1-23.7-.9-2-5.5-11.9-6.3-15.8-.5-2.9 0-5.4 1.4-6.8.9-.9 2.1-1.2 3.3-.9 2.7.6 13.7 17 18.3 24 .3.5.2 1.1-.3 1.4-.5.3-1.1.2-1.4-.3-7.1-10.9-15.5-22.5-17.1-23.2-.5-.1-1 0-1.5.4-.9.9-1.3 2.8-.9 5 .8 4 6.2 15.5 6.3 15.6.1.2.1.5.1.7-.2.7-5.1 17.4 7.7 21.6.5.2.8.7.6 1.3 0 .6-.4.8-.8.8z"/><linearGradient id="SVGID_1_" gradientUnits="userSpaceOnUse" x1="64.33" y1="55.599" x2="63.943" y2="10.87"><stop offset="0" stop-color="#fff"/><stop offset=".372" stop-color="#fdfdfd" stop-opacity=".665"/><stop offset=".505" stop-color="#f6f6f6" stop-opacity=".544"/><stop offset=".601" stop-color="#ebebeb" stop-opacity=".458"/><stop offset=".678" stop-color="#dadada" stop-opacity=".388"/><stop offset=".744" stop-color="#c4c4c4" stop-opacity=".328"/><stop offset=".803" stop-color="#a8a8a8" stop-opacity=".276"/><stop offset=".856" stop-color="#888" stop-opacity=".228"/><stop offset=".904" stop-color="#626262" stop-opacity=".184"/><stop offset=".95" stop-color="#373737" stop-opacity=".143"/><stop offset=".99" stop-color="#090909" stop-opacity=".107"/><stop offset=".997" stop-opacity=".1"/></linearGradient><path fill="url(#SVGID_1_)" d="M50.4 22.5H78v30.6H50.4z"/><path class="st1" d="M121 51H86.3c-.6 0-1-.4-1-1s.4-1 1-1H121c.6 0 1 .4 1 1s-.4 1-1 1zM121 64.8H51.4c-.6 0-1-.4-1-1s.4-1 1-1H121c.6 0 1 .4 1 1s-.4 1-1 1zM121 78.6H51.4c-.6 0-1-.4-1-1s.4-1 1-1H121c.6 0 1 .4 1 1s-.4 1-1 1zM121 92.3H51.4c-.6 0-1-.4-1-1s.4-1 1-1H121c.6 0 1 .4 1 1s-.4 1-1 1zM121 106.1H51.4c-.6 0-1-.4-1-1s.4-1 1-1H121c.6 0 1 .4 1 1s-.4 1-1 1zM100.4 119.9h-49c-.6 0-1-.4-1-1s.4-1 1-1h49c.6 0 1 .4 1 1s-.5 1-1 1zM121 23.5H86.3c-.6 0-1-.4-1-1s.4-1 1-1H121c.6 0 1 .4 1 1s-.4 1-1 1zM121 37.2H86.3c-.6 0-1-.4-1-1s.4-1 1-1H121c.6 0 1 .4 1 1s-.4 1-1 1z"/><path class="st3" d="M156.9 4.4c-15.5 0-28.1 12.6-28.1 28.1 0 5.6 1.7 10.9 4.5 15.3l-3.8 8 8.3-2.6c5 4.6 11.7 7.5 19.1 7.5 15.5 0 28.1-12.6 28.1-28.1 0-15.6-12.6-28.2-28.1-28.2z"/><path d="M153.3 46.2c-.1 0-.2 0-.3-.1-.2-.1-.4-.2-.5-.4-.7-.9-7.7-7.7-12-12-.4-.4-.4-1 0-1.4.4-.4 1-.4 1.4 0 7.2 7.1 10.3 10.1 11.5 11.5 2.9-2.8 14.2-14.2 22-22 .4-.4 1-.4 1.4 0 .4.4.4 1 0 1.4 0 0-5.6 5.7-11.3 11.4-10.1 10.2-11.5 11.6-12.2 11.6z" fill="#fff"/><g><path class="st5" d="M318.8 46.2c11.3 10.7 18.3 25.8 18.3 42.5 0 32.4-26.2 58.6-58.6 58.6s-58.6-26.2-58.6-58.6c0-16.7 7-31.7 18.1-42.4"/><path class="st5" d="M289.4 103.4l23.2 7.5c5.9 2 9.9 9.2 9.9 15.5M235.1 128c0-6.3 4-15.1 10-17.1l22.3-7.5M278.5 97.7c-3.7 0-7.3-.7-10.6-1.9v6.7c0 5.8 4.7 10.4 10.4 10.4s10.4-4.7 10.4-10.4v-6.6c-3.1 1.1-6.6 1.8-10.2 1.8z"/><circle class="st1" cx="264.3" cy="57.6" r="2.9"/><circle class="st1" cx="292" cy="57.6" r="2.9"/><path class="st5" d="M266.8 80.6l1.8 1.1c5.8 3.4 12.9 3.5 18.8.3l2.5-1.3M283.7 66.6c0 2.5-2.5 4.5-5.6 4.5-3.1 0-5.6-2-5.6-4.5M255.4 51.5l.7-.5c4.1-2.7 9.3-2.9 13.5-.5l1.8 1M283.5 51.5l.7-.5c4.1-2.7 9.3-2.9 13.5-.5l1.8 1"/><circle class="st3" cx="278.5" cy="144.4" r="26.1"/><path class="st6" d="M262.9 143.7s10.9 10.6 10.9 10.9 20.3-20.3 20.3-20.3"/><path class="st5" d="M316 59.8c0-4-3.1-7.2-7.1-7.4v14.8c4-.2 7.1-3.4 7.1-7.4zM247.7 52.3c-4.1 0-7.5 3.3-7.5 7.5s3.3 7.5 7.5 7.5h.4V52.4c-.1 0-.2-.1-.4-.1z"/><path class="st5" d="M308.4 50.9s-2.5-11.9-14.8-21.2c-5 3.1-11.5 3.5-18.9 2.4-4.1-.6-7.3-1.7-9.6-3-2.6 6.7-8.5 13.8-12.8 15.1-3 .9-3.9 3.7-4.2 6.1v17c0 13.1 8.3 24.2 19.8 28.5 3.3 1.2 6.9 1.9 10.6 1.9 3.6 0 7.1-.7 10.3-1.8 11.7-4.2 20.1-15.4 20.1-28.6V50c-.3.6-.5.9-.5.9z"/><path class="st5" d="M260.9 25.7c-2.6-3-2.9-6.4-2.7-8.7-2.6 0-6.1.8-9.3 4.5-5.8 6.5-5.1 18.4-4.3 22 .9 3.6 3.5 10.1 3.5 10.1s-.2-1.5 0-3.3c.3-2.3 1.2-5.2 4.2-6.1 4.2-1.3 10.2-8.4 12.8-15.1-1.8-1-3.2-2.2-4.2-3.4zM312.1 28.1c-2.1-7.1-6.6-10-9.5-11.2-1.1 3.6-2.6 6.5-4.5 8.8-1.3 1.7-2.8 3-4.5 4 12.3 9.3 14.8 21.2 14.8 21.2l.5-1c1.5-3 5.9-13.1 3.2-21.8z"/><path class="st5" d="M280.7 7c-16.6-2.4-21.3 4.8-22.2 8.3-.1.5-.2 1-.3 1.7-.2 2.3.2 5.7 2.7 8.7 1 1.2 2.4 2.3 4.2 3.3 2.4 1.3 5.5 2.4 9.6 3 7.5 1.1 13.9.7 18.9-2.4 1.7-1 3.2-2.4 4.5-4 1.8-2.3 3.3-5.2 4.5-8.8 1.4-4.4 2.2-9.8 2.5-16.4.1.1-7.8 9.1-24.4 6.6z"/></g><g><path class="st5" d="M504.8 46.2c11.3 10.7 18.3 25.8 18.3 42.5 0 32.4-26.2 58.6-58.6 58.6s-58.6-26.2-58.6-58.6c0-16.7 7-31.7 18.1-42.4"/><path class="st5" d="M475.4 103.4l23.2 7.5c5.9 2 9.9 9.2 9.9 15.5M421.1 128c0-6.3 4-15.1 10-17.1l22.3-7.5M464.5 97.7c-3.7 0-7.3-.7-10.6-1.9v6.7c0 5.8 4.7 10.4 10.4 10.4s10.4-4.7 10.4-10.4v-6.6c-3.1 1.1-6.6 1.8-10.2 1.8zM475.9 84.2l-1.8-1.1c-5.8-3.4-12.9-3.5-18.8-.3l-2.5 1.3M469.7 66.6c0 2.5-2.5 4.5-5.6 4.5-3.1 0-5.6-2-5.6-4.5M441.3 48.9l.8.3c4.5 1.8 9.7 1 13.4-2.2l1.5-1.3M470.1 45.3l.6.6c3.2 3.6 8.3 5.2 13 3.9l1.9-.5M502 59.8c0-4-3.1-7.2-7.1-7.4v14.8c3.9-.2 7.1-3.4 7.1-7.4zM433.7 52.3c-4.1 0-7.5 3.3-7.5 7.5s3.3 7.5 7.5 7.5h.4V52.4c-.1 0-.3-.1-.4-.1z"/><path class="st5" d="M494.4 50.9s-2.5-11.9-14.8-21.2c-5 3.1-11.5 3.5-18.9 2.4-4.1-.6-7.3-1.7-9.6-3-2.6 6.7-8.5 13.8-12.8 15.1-3 .9-3.9 3.7-4.2 6.1v17c0 13.1 8.3 24.2 19.8 28.5 3.3 1.2 6.9 1.9 10.6 1.9 3.6 0 7.1-.7 10.3-1.8 11.7-4.2 20.1-15.4 20.1-28.6V50c-.3.6-.5.9-.5.9z"/><path class="st5" d="M446.9 25.7c-2.6-3-2.9-6.4-2.7-8.7-2.6 0-6.1.8-9.3 4.5-5.8 6.5-5.1 18.4-4.3 22 .9 3.6 3.5 10.1 3.5 10.1s-.2-1.5 0-3.3c.3-2.3 1.2-5.2 4.2-6.1 4.2-1.3 10.2-8.4 12.8-15.1-1.8-1-3.2-2.2-4.2-3.4zM498.1 28.1c-2.1-7.1-6.6-10-9.5-11.2-1.1 3.6-2.6 6.5-4.5 8.8-1.3 1.7-2.8 3-4.5 4 12.3 9.3 14.8 21.2 14.8 21.2l.5-1c1.5-3 5.8-13.1 3.2-21.8z"/><path class="st5" d="M466.6 7c-16.6-2.4-21.3 4.8-22.2 8.3-.1.5-.2 1-.3 1.7-.2 2.3.2 5.7 2.7 8.7 1 1.2 2.4 2.3 4.2 3.3 2.4 1.3 5.5 2.4 9.6 3 7.5 1.1 13.9.7 18.9-2.4 1.7-1 3.2-2.4 4.5-4 1.8-2.3 3.3-5.2 4.5-8.8 1.4-4.4 2.2-9.8 2.5-16.4.1.1-7.8 9.1-24.4 6.6zM471.4 56.5l12.8 1.1M442.1 57.6l12.7-1.1"/><circle cx="464.5" cy="144.4" r="26.1" fill="#d62d2d"/><path class="st6" d="M453.1 155.8l22.8-22.8M475.9 155.8L453.1 133"/></g></svg>